<svg xmlns="http://www.w3.org/2000/svg" xmlns:xlink="http://www.w3.org/1999/xlink" width="50" zoomAndPan="magnify" viewBox="0 0 37.5 37.499999" height="50" preserveAspectRatio="xMidYMid meet" version="1.0"><defs><clipPath id="65baf19147"><path d="M 2.773438 0.847656 L 34.226562 0.847656 L 34.226562 36.152344 L 2.773438 36.152344 Z M 2.773438 0.847656 " clip-rule="nonzero"/></clipPath></defs><path fill="#ffffff" d="M 13.320312 27.691406 L 13.320312 16.617188 C 12.835938 16.933594 11.925781 17.203125 11.390625 17.269531 L 11.390625 14.863281 C 12.414062 14.59375 13.433594 13.804688 14.035156 12.859375 L 15.6875 12.859375 L 15.6875 27.691406 L 13.320312 27.691406 " fill-opacity="1" fill-rule="nonzero"/><path fill="#ffffff" d="M 20.191406 20.242188 C 20.191406 22.964844 20.417969 25.398438 21.921875 25.398438 C 23.398438 25.398438 23.59375 23.125 23.59375 20.21875 C 23.59375 17.339844 23.332031 15.175781 21.941406 15.175781 C 20.578125 15.175781 20.191406 17.046875 20.191406 20.242188 Z M 25.988281 20.195312 C 25.988281 24.273438 25.066406 27.964844 21.890625 27.964844 C 18.765625 27.964844 17.808594 24.382812 17.808594 20.289062 C 17.808594 16.234375 18.878906 12.609375 21.941406 12.609375 C 24.921875 12.609375 25.988281 15.988281 25.988281 20.195312 " fill-opacity="1" fill-rule="nonzero"/><path fill="#ffffff" d="M 28.070312 14.898438 L 29.824219 13.886719 C 28.675781 11.902344 27.023438 10.25 25.039062 9.101562 L 24.027344 10.855469 C 25.703125 11.824219 27.101562 13.222656 28.070312 14.898438 " fill-opacity="1" fill-rule="nonzero"/><path fill="#ffffff" d="M 24.027344 10.855469 L 25.039062 9.101562 C 23.113281 7.984375 20.882812 7.34375 18.5 7.34375 L 18.5 9.367188 C 20.511719 9.367188 22.398438 9.910156 24.027344 10.855469 " fill-opacity="1" fill-rule="nonzero"/><path fill="#ffffff" d="M 29.558594 20.425781 L 31.582031 20.425781 C 31.582031 18.042969 30.941406 15.8125 29.824219 13.886719 L 28.070312 14.898438 C 29.015625 16.527344 29.558594 18.414062 29.558594 20.425781 " fill-opacity="1" fill-rule="nonzero"/><path fill="#ffffff" d="M 29.558594 20.425781 C 29.558594 22.4375 29.015625 24.324219 28.070312 25.949219 L 29.824219 26.960938 C 30.941406 25.039062 31.582031 22.804688 31.582031 20.425781 L 29.558594 20.425781 " fill-opacity="1" fill-rule="nonzero"/><path fill="#ffffff" d="M 18.5 31.480469 L 18.5 33.507812 C 20.882812 33.507812 23.113281 32.863281 25.039062 31.75 L 24.027344 29.996094 C 22.398438 30.9375 20.511719 31.480469 18.5 31.480469 " fill-opacity="1" fill-rule="nonzero"/><path fill="#ffffff" d="M 12.976562 29.996094 L 11.960938 31.75 C 13.886719 32.863281 16.121094 33.507812 18.5 33.507812 L 18.5 31.480469 C 16.488281 31.480469 14.601562 30.9375 12.976562 29.996094 " fill-opacity="1" fill-rule="nonzero"/><path fill="#ffffff" d="M 8.929688 14.898438 L 7.175781 13.886719 C 6.0625 15.8125 5.417969 18.042969 5.417969 20.425781 L 7.445312 20.425781 C 7.445312 18.414062 7.988281 16.527344 8.929688 14.898438 " fill-opacity="1" fill-rule="nonzero"/><path fill="#ffffff" d="M 24.027344 29.996094 L 25.039062 31.75 C 27.023438 30.601562 28.675781 28.945312 29.824219 26.960938 L 28.070312 25.949219 C 27.101562 27.625 25.703125 29.023438 24.027344 29.996094 " fill-opacity="1" fill-rule="nonzero"/><path fill="#ffffff" d="M 8.929688 25.949219 L 7.175781 26.960938 C 8.324219 28.945312 9.980469 30.601562 11.960938 31.75 L 12.976562 29.996094 C 11.300781 29.023438 9.902344 27.625 8.929688 25.949219 " fill-opacity="1" fill-rule="nonzero"/><path fill="#ffffff" d="M 7.445312 20.425781 L 5.417969 20.425781 C 5.417969 22.804688 6.0625 25.039062 7.175781 26.960938 L 8.929688 25.949219 C 7.988281 24.324219 7.445312 22.4375 7.445312 20.425781 " fill-opacity="1" fill-rule="nonzero"/><g clip-path="url(#65baf19147)"><path fill="#065465" d="M 18.5 35.816406 C 10.015625 35.816406 3.109375 28.910156 3.109375 20.425781 C 3.109375 11.9375 10.015625 5.035156 18.5 5.035156 C 26.988281 5.035156 33.890625 11.9375 33.890625 20.425781 C 33.890625 28.910156 26.988281 35.816406 18.5 35.816406 Z M 15.367188 1.464844 C 15.367188 1.308594 15.492188 1.183594 15.648438 1.183594 L 16.285156 1.183594 L 16.285156 4.574219 L 15.367188 4.574219 Z M 21.703125 1.464844 L 21.703125 4.574219 L 20.898438 4.574219 L 20.898438 1.183594 L 21.421875 1.183594 C 21.574219 1.183594 21.703125 1.308594 21.703125 1.464844 Z M 19.445312 4.574219 L 18.667969 4.574219 L 18.667969 1.183594 L 19.445312 1.183594 Z M 20.558594 4.574219 L 19.785156 4.574219 L 19.785156 1.183594 L 20.558594 1.183594 Z M 17.695312 1.183594 L 18.332031 1.183594 L 18.332031 4.574219 L 17.695312 4.574219 Z M 16.621094 4.574219 L 16.621094 1.183594 L 17.359375 1.183594 L 17.359375 4.574219 Z M 21.074219 4.910156 L 22.039062 4.910156 L 22.039062 1.464844 C 22.039062 1.125 21.761719 0.847656 21.421875 0.847656 L 15.648438 0.847656 C 15.304688 0.847656 15.027344 1.125 15.027344 1.464844 L 15.027344 4.910156 L 15.929688 4.910156 C 8.476562 6.144531 2.773438 12.628906 2.773438 20.425781 C 2.773438 29.097656 9.828125 36.152344 18.5 36.152344 C 27.171875 36.152344 34.226562 29.097656 34.226562 20.425781 C 34.226562 12.628906 28.527344 6.144531 21.074219 4.910156 " fill-opacity="1" fill-rule="nonzero"/></g><path fill="#065465" d="M 25.101562 31.519531 L 24.148438 29.867188 C 24.101562 29.789062 24 29.761719 23.917969 29.808594 C 23.835938 29.855469 23.808594 29.957031 23.855469 30.039062 L 24.808594 31.6875 C 22.988281 32.710938 20.894531 33.304688 18.667969 33.335938 L 18.667969 31.425781 C 18.667969 31.335938 18.59375 31.257812 18.5 31.257812 C 18.40625 31.257812 18.332031 31.335938 18.332031 31.425781 L 18.332031 33.335938 C 16.105469 33.304688 14.015625 32.710938 12.195312 31.6875 L 13.144531 30.039062 C 13.191406 29.957031 13.164062 29.855469 13.082031 29.808594 C 13.003906 29.761719 12.898438 29.789062 12.851562 29.867188 L 11.902344 31.519531 C 10.054688 30.417969 8.507812 28.871094 7.40625 27.023438 L 9.058594 26.074219 C 9.136719 26.027344 9.164062 25.921875 9.117188 25.839844 C 9.070312 25.761719 8.96875 25.734375 8.886719 25.78125 L 7.238281 26.730469 C 6.214844 24.910156 5.621094 22.820312 5.589844 20.59375 L 7.5 20.59375 C 7.589844 20.59375 7.667969 20.519531 7.667969 20.425781 C 7.667969 20.332031 7.589844 20.253906 7.5 20.253906 L 5.589844 20.253906 C 5.621094 18.027344 6.214844 15.9375 7.238281 14.117188 L 8.886719 15.070312 C 8.914062 15.085938 8.945312 15.09375 8.972656 15.09375 C 9.03125 15.09375 9.085938 15.0625 9.117188 15.007812 C 9.164062 14.925781 9.136719 14.824219 9.058594 14.777344 L 7.40625 13.824219 C 8.507812 11.980469 10.054688 10.433594 11.902344 9.332031 L 12.851562 10.980469 C 12.882812 11.035156 12.941406 11.066406 13 11.066406 C 13.027344 11.066406 13.058594 11.058594 13.082031 11.042969 C 13.164062 10.996094 13.191406 10.890625 13.144531 10.8125 L 12.195312 9.164062 C 14.015625 8.136719 16.105469 7.542969 18.332031 7.515625 L 18.332031 9.421875 C 18.332031 9.515625 18.40625 9.589844 18.5 9.589844 C 18.59375 9.589844 18.667969 9.515625 18.667969 9.421875 L 18.667969 7.515625 C 20.894531 7.542969 22.988281 8.136719 24.808594 9.160156 L 23.855469 10.8125 C 23.808594 10.890625 23.835938 10.996094 23.917969 11.042969 C 23.945312 11.058594 23.972656 11.066406 24.003906 11.066406 C 24.0625 11.066406 24.117188 11.035156 24.148438 10.980469 L 25.101562 9.332031 C 26.945312 10.433594 28.492188 11.980469 29.59375 13.824219 L 27.945312 14.777344 C 27.863281 14.824219 27.835938 14.925781 27.882812 15.007812 C 27.914062 15.0625 27.972656 15.09375 28.03125 15.09375 C 28.058594 15.09375 28.085938 15.085938 28.113281 15.070312 L 29.761719 14.117188 C 30.785156 15.9375 31.382812 18.027344 31.410156 20.253906 L 29.503906 20.253906 C 29.410156 20.253906 29.335938 20.332031 29.335938 20.425781 C 29.335938 20.519531 29.410156 20.59375 29.503906 20.59375 L 31.410156 20.59375 C 31.382812 22.820312 30.785156 24.910156 29.761719 26.730469 L 28.113281 25.78125 C 28.03125 25.734375 27.929688 25.761719 27.882812 25.839844 C 27.835938 25.921875 27.863281 26.027344 27.945312 26.074219 L 29.59375 27.023438 C 28.492188 28.871094 26.945312 30.417969 25.101562 31.519531 Z M 29.988281 27.019531 C 31.109375 25.074219 31.753906 22.824219 31.753906 20.425781 C 31.753906 18.023438 31.109375 15.773438 29.988281 13.832031 C 29.984375 13.820312 29.984375 13.808594 29.976562 13.800781 C 29.972656 13.789062 29.960938 13.78125 29.957031 13.773438 C 28.796875 11.785156 27.136719 10.128906 25.148438 8.96875 C 25.140625 8.960938 25.136719 8.953125 25.125 8.949219 C 25.117188 8.941406 25.105469 8.941406 25.097656 8.9375 C 23.152344 7.816406 20.902344 7.171875 18.5 7.171875 C 16.101562 7.171875 13.851562 7.816406 11.90625 8.9375 C 11.894531 8.941406 11.886719 8.941406 11.875 8.949219 C 11.867188 8.953125 11.859375 8.960938 11.851562 8.96875 C 9.863281 10.128906 8.203125 11.789062 7.046875 13.773438 C 7.039062 13.78125 7.03125 13.789062 7.023438 13.800781 C 7.019531 13.808594 7.019531 13.820312 7.015625 13.828125 C 5.894531 15.773438 5.25 18.023438 5.25 20.425781 C 5.25 22.824219 5.894531 25.074219 7.015625 27.019531 C 7.019531 27.03125 7.019531 27.039062 7.023438 27.050781 C 7.027344 27.058594 7.035156 27.0625 7.042969 27.066406 C 8.199219 29.058594 9.859375 30.71875 11.851562 31.878906 C 11.859375 31.886719 11.867188 31.894531 11.875 31.902344 C 11.882812 31.90625 11.890625 31.902344 11.898438 31.90625 C 13.84375 33.03125 16.097656 33.675781 18.5 33.675781 C 20.902344 33.675781 23.15625 33.03125 25.101562 31.90625 C 25.109375 31.90625 25.117188 31.90625 25.125 31.902344 C 25.136719 31.894531 25.144531 31.886719 25.152344 31.878906 C 27.140625 30.71875 28.800781 29.058594 29.960938 27.066406 C 29.964844 27.0625 29.972656 27.058594 29.976562 27.050781 C 29.984375 27.039062 29.984375 27.03125 29.988281 27.019531 " fill-opacity="1" fill-rule="nonzero"/></svg>